<svg width="19" height="19" viewBox="0 0 19 19" fill="none" xmlns="http://www.w3.org/2000/svg">
<path d="M16 17V15.3333C16 14.4493 15.6576 13.6014 15.0481 12.9763C14.4386 12.3512 13.612 12 12.75 12H9.5H6.25C5.38805 12 4.5614 12.3512 3.9519 12.9763C3.34241 13.6014 3 14.4493 3 15.3333V17" stroke="#000958" stroke-width="2" stroke-linecap="round" stroke-linejoin="round"/>
<path d="M9.5 9C11.433 9 13 7.433 13 5.5C13 3.567 11.433 2 9.5 2C7.567 2 6 3.567 6 5.5C6 7.433 7.567 9 9.5 9Z" stroke="#000958" stroke-width="2" stroke-linecap="round" stroke-linejoin="round"/>
<line x1="3" y1="17" x2="16" y2="17" stroke="#000958" stroke-width="2"/>
</svg>
