<svg width="131" height="13" viewBox="0 0 131 13" fill="none" xmlns="http://www.w3.org/2000/svg">
<path d="M21.4473 4.16016C21.4375 5.73242 22.2285 7.33398 23.5957 7.98828L22.9316 8.85742C21.9746 8.37402 21.2861 7.44141 20.9102 6.31836C20.5244 7.51953 19.8018 8.51562 18.791 9.02344L18.127 8.1543C19.543 7.48047 20.3535 5.79102 20.3633 4.16016V2.75391H21.4473V4.16016ZM25.207 2.04102V5.49805H26.5645V6.42578H25.207V10.8691H24.123V2.04102H25.207ZM34.9824 6.28906V7.1582H26.9355V6.28906H28.8105V5.16602C28.1465 4.8877 27.7656 4.44336 27.7656 3.86719C27.7656 2.8125 29.0059 2.1875 30.9492 2.1875C32.8926 2.1875 34.123 2.8125 34.1328 3.86719C34.1279 4.44824 33.7471 4.89258 33.0781 5.16602V6.28906H34.9824ZM30.9492 7.69531C32.8535 7.68555 33.9961 8.25195 34.0059 9.26758C33.9961 10.293 32.8535 10.8496 30.9492 10.8496C29.0254 10.8496 27.873 10.293 27.873 9.26758C27.873 8.25195 29.0254 7.68555 30.9492 7.69531ZM30.9492 8.51562C29.6602 8.51562 28.9668 8.76953 28.9766 9.26758C28.9668 9.76562 29.6602 10.0293 30.9492 10.0293C32.209 10.0293 32.9121 9.76562 32.9219 9.26758C32.9121 8.76953 32.209 8.51562 30.9492 8.51562ZM30.9492 3.02734C29.6406 3.02734 28.8887 3.32031 28.8984 3.86719C28.8887 4.4043 29.6406 4.6875 30.9492 4.6875C32.248 4.6875 33.0098 4.4043 33.0098 3.86719C33.0098 3.32031 32.248 3.02734 30.9492 3.02734ZM29.9043 6.28906H31.9941V5.44922C31.6768 5.49316 31.3252 5.51758 30.9492 5.51758C30.5732 5.51758 30.2217 5.49316 29.9043 5.44922V6.28906ZM40.0703 2.17773V2.87109H43.8789V2.17773H44.9531V5.11719H38.9961V2.17773H40.0703ZM40.0703 4.30664H43.8789V3.66211H40.0703V4.30664ZM45.998 5.66406V6.55273H42.502V7.20703H44.9922V9.3457H39.9727V9.96094H45.2363V10.791H38.9082V8.58398H43.9277V8.00781H38.8984V7.20703H41.418V6.55273H37.9512V5.66406H45.998ZM53.5078 2.04102V5.48828H54.8164V6.39648H53.5078V10.8496H52.4238V2.04102H53.5078ZM51.1738 2.95898C51.1738 5.55664 50.0996 7.83203 47.1602 9.27734L46.5449 8.4375C48.6934 7.36816 49.8555 5.86426 50.0801 3.85742H47.0234V2.95898H51.1738ZM62.375 4.33594V5.21484H56.2812V2.19727H57.3652V4.33594H62.375ZM63.293 6.06445V6.94336H55.2363V6.06445H63.293ZM59.25 7.57812C61.1543 7.58789 62.2969 8.17383 62.3066 9.20898C62.2969 10.2441 61.1543 10.8301 59.25 10.8301C57.3262 10.8301 56.1738 10.2441 56.1738 9.20898C56.1738 8.17383 57.3262 7.58789 59.25 7.57812ZM59.25 8.42773C57.9609 8.4375 57.2676 8.68164 57.2773 9.20898C57.2676 9.7168 57.9609 10 59.25 10C60.5098 10 61.2129 9.7168 61.2227 9.20898C61.2129 8.68164 60.5098 8.4375 59.25 8.42773ZM70.8418 2.05078V4.82422H72.0723V5.72266H70.8418V8.64258H69.7578V2.05078H70.8418ZM69.123 3.02734V3.89648H63.8887V3.02734H65.9688V2.04102H67.0527V3.02734H69.123ZM66.5059 4.25781C67.7754 4.25781 68.6543 4.93164 68.6641 5.94727C68.6543 6.95312 67.7754 7.61719 66.5059 7.61719C65.2266 7.61719 64.3379 6.95312 64.3379 5.94727C64.3379 4.93164 65.2266 4.25781 66.5059 4.25781ZM66.5059 5.09766C65.832 5.09766 65.3926 5.41016 65.3926 5.94727C65.3926 6.47461 65.832 6.78711 66.5059 6.77734C67.1797 6.78711 67.6289 6.47461 67.6289 5.94727C67.6289 5.41016 67.1797 5.09766 66.5059 5.09766ZM71.1934 9.81445V10.6934H65.1875V8.125H66.2715V9.81445H71.1934ZM77.2676 2.68555C78.5957 2.68555 79.5527 3.89648 79.5625 5.80078C79.5527 7.72461 78.5957 8.92578 77.2676 8.92578C75.9297 8.92578 74.9629 7.72461 74.9727 5.80078C74.9629 3.89648 75.9297 2.68555 77.2676 2.68555ZM77.2676 3.66211C76.5254 3.66211 76.0176 4.45312 76.0176 5.80078C76.0176 7.1582 76.5254 7.94922 77.2676 7.94922C78.0195 7.94922 78.5176 7.1582 78.5176 5.80078C78.5176 4.45312 78.0195 3.66211 77.2676 3.66211ZM81.8086 2.04102V5.42969H83.166V6.34766H81.8086V10.8691H80.7246V2.04102H81.8086ZM90.8809 2.04102V10.8789H89.7871V2.04102H90.8809ZM86.125 2.68555C87.4531 2.68555 88.4199 3.89648 88.4297 5.80078C88.4199 7.72461 87.4531 8.92578 86.125 8.92578C84.7871 8.92578 83.8203 7.72461 83.8203 5.80078C83.8203 3.89648 84.7871 2.68555 86.125 2.68555ZM86.125 3.66211C85.373 3.66211 84.8652 4.45312 84.8652 5.80078C84.8652 7.1582 85.373 7.94922 86.125 7.94922C86.8672 7.94922 87.375 7.1582 87.375 5.80078C87.375 4.45312 86.8672 3.66211 86.125 3.66211ZM99.5234 2.04102V10.8789H98.4297V2.04102H99.5234ZM96.9844 2.8418V3.73047H93.8203V7.83203C95.4463 7.82715 96.4668 7.77832 97.6387 7.56836L97.7461 8.4668C96.4863 8.70117 95.3438 8.75 93.4785 8.75H92.7266V2.8418H96.9844ZM110.549 2.04102V6.77734H109.455V2.04102H110.549ZM105.783 7.1875V8.0957H109.465V7.1875H110.549V10.7617H104.709V7.1875H105.783ZM105.783 9.88281H109.465V8.94531H105.783V9.88281ZM105.734 2.43164C107.092 2.42188 108.107 3.27148 108.107 4.50195C108.107 5.70312 107.092 6.55273 105.734 6.55273C104.367 6.55273 103.352 5.70312 103.352 4.50195C103.352 3.27148 104.367 2.42188 105.734 2.43164ZM105.734 3.33984C104.963 3.33984 104.406 3.78906 104.416 4.50195C104.406 5.20508 104.963 5.6543 105.734 5.66406C106.496 5.6543 107.043 5.20508 107.043 4.50195C107.043 3.78906 106.496 3.33984 105.734 3.33984ZM119.201 2.04102V10.8691H118.127V2.04102H119.201ZM113.42 2.90039V7.72461C114.66 7.70508 115.979 7.59277 117.336 7.32422L117.473 8.23242C115.92 8.55469 114.475 8.65234 113.107 8.65234H112.346V2.90039H113.42ZM127.395 2.04102V5.39062H128.752V6.2793H127.395V10.8789H126.311V2.04102H127.395ZM124.973 2.88086V3.75977H121.926V7.8125C123.298 7.8125 124.382 7.74414 125.598 7.5293L125.725 8.44727C124.357 8.68164 123.166 8.7207 121.574 8.7207H120.842V2.88086H124.973ZM130.197 10.0781C129.777 10.0781 129.436 9.73633 129.436 9.31641C129.436 8.90625 129.777 8.56445 130.197 8.56445C130.598 8.56445 130.949 8.90625 130.949 9.31641C130.949 9.73633 130.598 10.0781 130.197 10.0781Z" fill="#000958"/>
<g clip-path="url(#clip0_0_1)">
<circle cx="6.5" cy="6.5" r="5.5" fill="#FFB3B3"/>
<path d="M6.50065 11.9168C9.49219 11.9168 11.9173 9.4917 11.9173 6.50016C11.9173 3.50862 9.49219 1.0835 6.50065 1.0835C3.50911 1.0835 1.08398 3.50862 1.08398 6.50016C1.08398 9.4917 3.50911 11.9168 6.50065 11.9168Z" stroke="#000958" stroke-width="2" stroke-linecap="round" stroke-linejoin="round"/>
<path d="M8.03125 4.96826L4.96712 8.03239" stroke="#000958" stroke-width="2" stroke-linecap="round" stroke-linejoin="round"/>
<path d="M4.96875 4.96826L8.03288 8.03239" stroke="#000958" stroke-width="2" stroke-linecap="round" stroke-linejoin="round"/>
</g>
<defs>
<clipPath id="clip0_0_1">
<rect width="13" height="13" fill="white"/>
</clipPath>
</defs>
</svg>
