<svg width="13" height="13" viewBox="0 0 13 13" fill="none" xmlns="http://www.w3.org/2000/svg">
<g clip-path="url(#clip0_242_979)">
<circle cx="7" cy="6" r="5" fill="#EFFFCD"/>
<path d="M11.9173 6.00151V6.49985C11.9167 7.66791 11.5384 8.80446 10.839 9.74C10.1397 10.6755 9.1566 11.3599 8.03647 11.6911C6.91634 12.0223 5.71917 11.9825 4.62349 11.5777C3.52781 11.1729 2.59234 10.4248 1.95659 9.44492C1.32084 8.46503 1.01887 7.30588 1.09573 6.14035C1.17258 4.97482 1.62414 3.86536 2.38305 2.97743C3.14197 2.0895 4.16758 1.47068 5.30692 1.21326C6.44626 0.955838 7.6383 1.07361 8.70524 1.54901" stroke="#000958" stroke-width="2" stroke-linecap="round" stroke-linejoin="round"/>
<path d="M11.9167 2.1665L6.5 7.58859L4.875 5.96359" stroke="#000958" stroke-width="2" stroke-linecap="round" stroke-linejoin="round"/>
</g>
<defs>
<clipPath id="clip0_242_979">
<rect width="13" height="13" fill="white"/>
</clipPath>
</defs>
</svg>
