<svg width="343" height="322" viewBox="0 0 343 322" fill="none" xmlns="http://www.w3.org/2000/svg">
<path d="M72.8404 321.08H63.1204L59.0404 309.68H42.5404L38.3404 321.08H28.6204L45.4204 275.6H56.4604L72.8404 321.08ZM56.2204 301.88L50.9404 286.94L45.4204 301.88H56.2204ZM84.4073 277.28V321.08H75.2873V277.28H84.4073ZM98.7791 277.28V321.08H89.6591V277.28H98.7791ZM116.779 321.2C113.979 321.2 111.479 320.58 109.279 319.34C107.079 318.06 105.359 316.3 104.119 314.06C102.879 311.78 102.259 309.2 102.259 306.32C102.259 303.4 102.879 300.82 104.119 298.58C105.359 296.3 107.079 294.52 109.279 293.24C111.479 291.96 113.979 291.32 116.779 291.32C122.539 291.32 126.759 294 129.439 299.36C130.359 301.12 130.819 303.64 130.819 306.92L130.759 309.38H110.779C111.139 310.7 111.899 311.76 113.059 312.56C114.259 313.32 115.519 313.7 116.839 313.7C118.279 313.7 119.439 313.46 120.319 312.98C121.239 312.46 121.879 311.86 122.239 311.18L129.739 314C128.939 315.96 127.419 317.66 125.179 319.1C122.979 320.5 120.179 321.2 116.779 321.2ZM122.419 302.84C122.019 301.68 121.339 300.72 120.379 299.96C119.419 299.16 118.219 298.76 116.779 298.76C115.339 298.76 114.079 299.16 112.999 299.96C111.919 300.72 111.199 301.68 110.839 302.84H122.419ZM135.166 291.38H144.166V294.86C145.126 293.74 146.306 292.88 147.706 292.28C149.106 291.64 150.486 291.36 151.846 291.44V299.48C150.246 299.36 148.866 299.7 147.706 300.5C146.546 301.26 145.666 302.24 145.066 303.44C144.466 304.64 144.166 305.82 144.166 306.98V321.2H135.166V291.38ZM200.324 301.22C200.324 305.34 199.464 308.94 197.744 312.02C196.064 315.06 193.624 317.42 190.424 319.1C187.224 320.74 183.424 321.56 179.024 321.56C174.584 321.56 170.604 320.58 167.084 318.62C163.604 316.62 160.884 313.86 158.924 310.34C156.964 306.82 155.984 302.82 155.984 298.34C155.984 293.86 156.964 289.86 158.924 286.34C160.884 282.82 163.604 280.08 167.084 278.12C170.604 276.16 174.584 275.18 179.024 275.18C183.744 275.18 187.784 276.24 191.144 278.36C194.504 280.48 197.004 283.06 198.644 286.1L191.024 290.36C189.944 288.32 188.364 286.6 186.284 285.2C184.204 283.8 181.764 283.1 178.964 283.1C174.724 283.1 171.344 284.48 168.824 287.24C166.344 289.96 165.104 293.66 165.104 298.34C165.104 303.06 166.344 306.8 168.824 309.56C171.304 312.28 174.684 313.64 178.964 313.64C182.404 313.64 185.284 312.88 187.604 311.36C189.924 309.8 191.124 307.36 191.204 304.04H179.564V296.84H200.324V301.22ZM217.668 321.2C214.868 321.2 212.368 320.58 210.168 319.34C207.968 318.06 206.248 316.3 205.008 314.06C203.768 311.78 203.148 309.2 203.148 306.32C203.148 303.4 203.768 300.82 205.008 298.58C206.248 296.3 207.968 294.52 210.168 293.24C212.368 291.96 214.868 291.32 217.668 291.32C223.428 291.32 227.648 294 230.328 299.36C231.248 301.12 231.708 303.64 231.708 306.92L231.648 309.38H211.668C212.028 310.7 212.788 311.76 213.948 312.56C215.148 313.32 216.408 313.7 217.728 313.7C219.168 313.7 220.328 313.46 221.208 312.98C222.128 312.46 222.768 311.86 223.128 311.18L230.628 314C229.828 315.96 228.308 317.66 226.068 319.1C223.868 320.5 221.068 321.2 217.668 321.2ZM223.308 302.84C222.908 301.68 222.228 300.72 221.268 299.96C220.308 299.16 219.108 298.76 217.668 298.76C216.228 298.76 214.968 299.16 213.888 299.96C212.808 300.72 212.088 301.68 211.728 302.84H223.308ZM256.515 306.08C256.515 303.72 256.055 301.96 255.135 300.8C254.215 299.64 252.755 299.06 250.755 299.06C249.235 299.1 247.955 299.74 246.915 300.98C245.875 302.18 245.395 303.88 245.475 306.08V321.2H236.355V291.38H245.475V294.92C246.355 293.88 247.435 293.06 248.715 292.46C249.995 291.86 251.315 291.56 252.675 291.56C254.395 291.56 256.235 291.96 258.195 292.76C260.195 293.56 261.935 295.04 263.415 297.2C264.895 299.36 265.635 302.32 265.635 306.08V321.2H256.515V306.08ZM280.725 291.26V321.08H271.605V291.26H280.725ZM271.425 280.88C271.425 279.48 271.865 278.34 272.745 277.46C273.665 276.58 274.805 276.14 276.165 276.14C277.565 276.14 278.705 276.58 279.585 277.46C280.465 278.34 280.905 279.48 280.905 280.88C280.905 282.24 280.465 283.38 279.585 284.3C278.705 285.18 277.565 285.62 276.165 285.62C274.805 285.62 273.665 285.18 272.745 284.3C271.865 283.38 271.425 282.24 271.425 280.88ZM300.921 321.2C298.121 321.2 295.621 320.58 293.421 319.34C291.221 318.06 289.501 316.3 288.261 314.06C287.021 311.78 286.401 309.2 286.401 306.32C286.401 303.4 287.021 300.82 288.261 298.58C289.501 296.3 291.221 294.52 293.421 293.24C295.621 291.96 298.121 291.32 300.921 291.32C306.681 291.32 310.901 294 313.581 299.36C314.501 301.12 314.961 303.64 314.961 306.92L314.901 309.38H294.921C295.281 310.7 296.041 311.76 297.201 312.56C298.401 313.32 299.661 313.7 300.981 313.7C302.421 313.7 303.581 313.46 304.461 312.98C305.381 312.46 306.021 311.86 306.381 311.18L313.881 314C313.081 315.96 311.561 317.66 309.321 319.1C307.121 320.5 304.321 321.2 300.921 321.2ZM306.561 302.84C306.161 301.68 305.481 300.72 304.521 299.96C303.561 299.16 302.361 298.76 300.921 298.76C299.481 298.76 298.221 299.16 297.141 299.96C296.061 300.72 295.341 301.68 294.981 302.84H306.561Z" fill="#000958"/>
<g clip-path="url(#clip0_57_78)">
<path d="M325.044 177.603L181.435 6.02714C174.712 -2.00905 162.347 -2.00905 155.623 6.02714L121.104 47.1669L121.135 47.2126L10.8251 178.896C3.58293 185.091 -0.0915221 192.184 -4.19882e-05 200.113C0.121931 210.676 12.9749 221.421 34.8996 226.885L28.5722 227.22C17.0152 227.844 8.00446 237.448 8.14168 249L159.907 247.204L189.211 247.234L189.287 181.225C227.053 182.367 250.244 188.196 250.381 199.611C250.411 202.716 246.02 207.008 236.735 210.174C221.702 215.318 211.792 229.686 211.975 245.56C285.052 241.542 335.335 225.789 335 197.921C334.908 190.296 331.539 183.508 325.059 177.588L325.044 177.603ZM165.792 97.9562L211.441 149.841C197.368 149.202 182.182 148.974 165.899 149.156C149.951 149.339 135.101 149.917 121.333 150.831L165.792 97.941V97.9562ZM81.4935 202.061C81.3715 191.209 101.68 184.954 134.003 182.397L133.973 216.049L114.899 216.277H115.463C97.5634 215.47 81.6154 210.6 81.5087 202.061H81.4935Z" fill="#000958"/>
</g>
<defs>
<clipPath id="clip0_57_78">
<rect width="335" height="249" fill="white"/>
</clipPath>
</defs>
</svg>
