<svg width="17" height="19" viewBox="0 0 17 19" fill="none" xmlns="http://www.w3.org/2000/svg">
<path d="M13.4583 8.7085H3.54167C2.75926 8.7085 2.125 9.41738 2.125 10.2918V15.8335C2.125 16.7079 2.75926 17.4168 3.54167 17.4168H13.4583C14.2407 17.4168 14.875 16.7079 14.875 15.8335V10.2918C14.875 9.41738 14.2407 8.7085 13.4583 8.7085Z" stroke="#000958" stroke-width="2" stroke-linecap="round" stroke-linejoin="round"/>
<path d="M4.95898 8.7085V5.54183C4.95898 4.49201 5.33212 3.4852 5.99631 2.74287C6.66051 2.00053 7.56134 1.5835 8.50065 1.5835C9.43996 1.5835 10.3408 2.00053 11.005 2.74287C11.6692 3.4852 12.0423 4.49201 12.0423 5.54183V8.7085" stroke="#000958" stroke-width="2" stroke-linecap="round" stroke-linejoin="round"/>
</svg>
