<svg width="130" height="13" viewBox="0 0 130 13" fill="none" xmlns="http://www.w3.org/2000/svg">
<path d="M20.4473 4.16016C20.4375 5.73242 21.2285 7.33398 22.5957 7.98828L21.9316 8.85742C20.9746 8.37402 20.2861 7.44141 19.9102 6.31836C19.5244 7.51953 18.8018 8.51562 17.791 9.02344L17.127 8.1543C18.543 7.48047 19.3535 5.79102 19.3633 4.16016V2.75391H20.4473V4.16016ZM24.207 2.04102V5.49805H25.5645V6.42578H24.207V10.8691H23.123V2.04102H24.207ZM33.9824 6.28906V7.1582H25.9355V6.28906H27.8105V5.16602C27.1465 4.8877 26.7656 4.44336 26.7656 3.86719C26.7656 2.8125 28.0059 2.1875 29.9492 2.1875C31.8926 2.1875 33.123 2.8125 33.1328 3.86719C33.1279 4.44824 32.7471 4.89258 32.0781 5.16602V6.28906H33.9824ZM29.9492 7.69531C31.8535 7.68555 32.9961 8.25195 33.0059 9.26758C32.9961 10.293 31.8535 10.8496 29.9492 10.8496C28.0254 10.8496 26.873 10.293 26.873 9.26758C26.873 8.25195 28.0254 7.68555 29.9492 7.69531ZM29.9492 8.51562C28.6602 8.51562 27.9668 8.76953 27.9766 9.26758C27.9668 9.76562 28.6602 10.0293 29.9492 10.0293C31.209 10.0293 31.9121 9.76562 31.9219 9.26758C31.9121 8.76953 31.209 8.51562 29.9492 8.51562ZM29.9492 3.02734C28.6406 3.02734 27.8887 3.32031 27.8984 3.86719C27.8887 4.4043 28.6406 4.6875 29.9492 4.6875C31.248 4.6875 32.0098 4.4043 32.0098 3.86719C32.0098 3.32031 31.248 3.02734 29.9492 3.02734ZM28.9043 6.28906H30.9941V5.44922C30.6768 5.49316 30.3252 5.51758 29.9492 5.51758C29.5732 5.51758 29.2217 5.49316 28.9043 5.44922V6.28906ZM43.8652 2.04102V5.48828H45.1738V6.39648H43.8652V10.8496H42.7812V2.04102H43.8652ZM41.5312 2.95898C41.5312 5.55664 40.457 7.83203 37.5176 9.27734L36.9023 8.4375C39.0508 7.36816 40.2129 5.86426 40.4375 3.85742H37.3809V2.95898H41.5312ZM52.7324 4.33594V5.21484H46.6387V2.19727H47.7227V4.33594H52.7324ZM53.6504 6.06445V6.94336H45.5938V6.06445H53.6504ZM49.6074 7.57812C51.5117 7.58789 52.6543 8.17383 52.6641 9.20898C52.6543 10.2441 51.5117 10.8301 49.6074 10.8301C47.6836 10.8301 46.5312 10.2441 46.5312 9.20898C46.5312 8.17383 47.6836 7.58789 49.6074 7.57812ZM49.6074 8.42773C48.3184 8.4375 47.625 8.68164 47.6348 9.20898C47.625 9.7168 48.3184 10 49.6074 10C50.8672 10 51.5703 9.7168 51.5801 9.20898C51.5703 8.68164 50.8672 8.4375 49.6074 8.42773ZM61.1992 2.05078V4.82422H62.4297V5.72266H61.1992V8.64258H60.1152V2.05078H61.1992ZM59.4805 3.02734V3.89648H54.2461V3.02734H56.3262V2.04102H57.4102V3.02734H59.4805ZM56.8633 4.25781C58.1328 4.25781 59.0117 4.93164 59.0215 5.94727C59.0117 6.95312 58.1328 7.61719 56.8633 7.61719C55.584 7.61719 54.6953 6.95312 54.6953 5.94727C54.6953 4.93164 55.584 4.25781 56.8633 4.25781ZM56.8633 5.09766C56.1895 5.09766 55.75 5.41016 55.75 5.94727C55.75 6.47461 56.1895 6.78711 56.8633 6.77734C57.5371 6.78711 57.9863 6.47461 57.9863 5.94727C57.9863 5.41016 57.5371 5.09766 56.8633 5.09766ZM61.5508 9.81445V10.6934H55.5449V8.125H56.6289V9.81445H61.5508ZM72.5957 2.04102V10.8789H71.502V2.04102H72.5957ZM66.8047 2.76367V4.9707H68.9434V2.76367H70.0176V8.79883H65.7207V2.76367H66.8047ZM66.8047 7.91016H68.9434V5.82031H66.8047V7.91016ZM78.6016 2.5V6.18164H74.3438V2.5H78.6016ZM75.418 3.36914V5.33203H77.5273V3.36914H75.418ZM81.2285 2.04102V6.5332H80.1543V2.04102H81.2285ZM81.2285 6.93359V9.21875H76.4727V9.93164H81.4922V10.791H75.3984V8.4375H80.1738V7.7832H75.3887V6.93359H81.2285ZM89.9297 2.05078V8.56445H88.8457V5.3125H87.0684V7.12891H82.9375V2.62695H84.0215V4.05273H85.9941V2.62695H87.0684V4.43359H88.8457V2.05078H89.9297ZM90.125 9.81445V10.6934H84.1094V7.91992H85.2129V9.81445H90.125ZM84.0215 6.26953H85.9941V4.89258H84.0215V6.26953ZM98.8359 3.22266V4.10156H91.541V3.22266H94.6562V2.1582H95.7305V3.22266H98.8359ZM99.2461 9.04297V9.92188H91.1797V9.04297H94.6562V7.95898C93.1279 7.83691 92.2051 7.22656 92.2148 6.25C92.2051 5.18555 93.3477 4.55078 95.1934 4.55078C97.0098 4.55078 98.1621 5.18555 98.1621 6.25C98.1621 7.22168 97.2344 7.83203 95.7305 7.94922V9.04297H99.2461ZM95.1934 5.40039C93.9922 5.41016 93.3184 5.69336 93.3281 6.25C93.3184 6.81641 93.9922 7.09961 95.1934 7.10938C96.375 7.09961 97.0488 6.81641 97.0488 6.25C97.0488 5.69336 96.375 5.41016 95.1934 5.40039ZM109.549 2.04102V6.77734H108.455V2.04102H109.549ZM104.783 7.1875V8.0957H108.465V7.1875H109.549V10.7617H103.709V7.1875H104.783ZM104.783 9.88281H108.465V8.94531H104.783V9.88281ZM104.734 2.43164C106.092 2.42188 107.107 3.27148 107.107 4.50195C107.107 5.70312 106.092 6.55273 104.734 6.55273C103.367 6.55273 102.352 5.70312 102.352 4.50195C102.352 3.27148 103.367 2.42188 104.734 2.43164ZM104.734 3.33984C103.963 3.33984 103.406 3.78906 103.416 4.50195C103.406 5.20508 103.963 5.6543 104.734 5.66406C105.496 5.6543 106.043 5.20508 106.043 4.50195C106.043 3.78906 105.496 3.33984 104.734 3.33984ZM118.201 2.04102V10.8691H117.127V2.04102H118.201ZM112.42 2.90039V7.72461C113.66 7.70508 114.979 7.59277 116.336 7.32422L116.473 8.23242C114.92 8.55469 113.475 8.65234 112.107 8.65234H111.346V2.90039H112.42ZM126.395 2.04102V5.39062H127.752V6.2793H126.395V10.8789H125.311V2.04102H126.395ZM123.973 2.88086V3.75977H120.926V7.8125C122.298 7.8125 123.382 7.74414 124.598 7.5293L124.725 8.44727C123.357 8.68164 122.166 8.7207 120.574 8.7207H119.842V2.88086H123.973ZM129.197 10.0781C128.777 10.0781 128.436 9.73633 128.436 9.31641C128.436 8.90625 128.777 8.56445 129.197 8.56445C129.598 8.56445 129.949 8.90625 129.949 9.31641C129.949 9.73633 129.598 10.0781 129.197 10.0781Z" fill="#000958"/>
<g clip-path="url(#clip0_0_1)">
<circle cx="7" cy="6" r="5" fill="#EFFFCD"/>
<path d="M11.9173 6.00151V6.49985C11.9167 7.66791 11.5384 8.80446 10.839 9.74C10.1397 10.6755 9.1566 11.3599 8.03647 11.6911C6.91634 12.0223 5.71917 11.9825 4.62349 11.5777C3.52781 11.1729 2.59234 10.4248 1.95659 9.44492C1.32084 8.46503 1.01887 7.30588 1.09573 6.14035C1.17258 4.97482 1.62414 3.86536 2.38305 2.97743C3.14197 2.0895 4.16758 1.47068 5.30692 1.21326C6.44626 0.955838 7.6383 1.07361 8.70524 1.54901" stroke="#000958" stroke-width="2" stroke-linecap="round" stroke-linejoin="round"/>
<path d="M11.9167 2.1665L6.5 7.58859L4.875 5.96359" stroke="#000958" stroke-width="2" stroke-linecap="round" stroke-linejoin="round"/>
</g>
<defs>
<clipPath id="clip0_0_1">
<rect width="13" height="13" fill="white"/>
</clipPath>
</defs>
</svg>
